<svg xmlns="http://www.w3.org/2000/svg" width="36" height="35.25" viewBox="0 0 36 35.25">
  <path id="Icon_map-doctor" data-name="Icon map-doctor" d="M32.163,9.72H28.47V5.8A5.03,5.03,0,0,0,23.45.72H13.991A5.029,5.029,0,0,0,8.97,5.8V9.72H5.276A4.473,4.473,0,0,0,.72,14.173V31.428A4.549,4.549,0,0,0,5.276,35.97H32.163a4.55,4.55,0,0,0,4.557-4.543V14.173A4.474,4.474,0,0,0,32.163,9.72ZM11.97,5.8A2.166,2.166,0,0,1,13.991,3.72H23.45A2.168,2.168,0,0,1,25.47,5.8V9.72H11.97Zm15,20.42H21.72v5.25h-6V26.22H10.47v-6h5.25V14.97h6v5.25h5.25v6Z" transform="translate(-0.72 -0.72)"/>
</svg>
